<svg aria-label="Community icon" xmlns="http://www.w3.org/2000/svg" viewBox="0 0 16 16" height="16" width="16" focusable="false" role="img" class="o-svg--scale-to-fill" fill="#44413d">
<path d="M8 15A7 7 0 1 0 8 1a7 7 0 0 0 0 14zM8 2.8A5.2 5.2 0 1 1 2.8 8 5.21 5.21 0 0 1 8 2.8z"></path>
<circle r="1" cy="11" cx="8"></circle>
<path d="M6.5 7.1a.8.8 0 0 0 .8-.8.7.7 0 0 1 1.4 0 2 2 0 0 1-.57.9 7.65 7.65 0 0 0-.83 1.13.8.8 0 1 0 1.39.79c.196-.32.42-.62.67-.9a3 3 0 0 0 .94-1.92 2.3 2.3 0 0 0-4.6 0 .8.8 0 0 0 .8.8z"></path>
</svg>