<svg aria-label="Jobs icon" xmlns="http://www.w3.org/2000/svg" viewBox="0 0 16 16" height="16" width="16" focusable="false" role="img" class="o-svg--scale-to-fill" fill="#44413d">
<path d="M2.9 14h10.2a1.9 1.9 0 0 0 1.9-1.9V4.9A1.9 1.9 0 0 0 13.1 3h-1.23a4 4 0 0 0-7.74 0H2.9A1.9 1.9 0 0 0 1 4.9v7.2c0 1.05.85 1.9 1.9 1.9zm10.2-1.8H2.9a.1.1 0 0 1-.1-.1V8h10.4v4.1a.1.1 0 0 1-.1.1zM8 1.75A2.2 2.2 0 0 1 10 3H6a2.2 2.2 0 0 1 2-1.25zm-5.1 3h10.2a.1.1 0 0 1 .1.1V6.2H2.8V4.9a.1.1 0 0 1 .1-.1v-.05z"></path>
<path d="M9 9H7a1 1 0 1 0 0 2h2a1 1 0 0 0 0-2z"></path>
</svg>