<svg aria-label="Marketplace icon" xmlns="http://www.w3.org/2000/svg" viewBox="0 0 16 16" height="16" width="16" focusable="false" role="img" class="o-svg--scale-to-fill" fill="#44413d">
<path d="M4.93 15h6.2A2.9 2.9 0 0 0 14 12.1V4h-3v-.1A3 3 0 0 0 8 1a3 3 0 0 0-3 2.9V4H2v8.1A2.9 2.9 0 0 0 4.93 15zM6.8 3.9A1.15 1.15 0 0 1 8 2.8a1.15 1.15 0 0 1 1.2 1.1V4H6.8v-.1zm-3 1.9H5v2.1a.9.9 0 0 0 1.8 0V5.8h2.4v2.1a.9.9 0 0 0 1.8 0V5.8h1.23v6.3a1.1 1.1 0 0 1-1.1 1.1h-6.2a1.1 1.1 0 0 1-1.1-1.1V5.8H3.8z"></path>
</svg>