<svg aria-label="Motors icon" xmlns="http://www.w3.org/2000/svg" height="16" width="16" focusable="false" role="img" class="o-svg--scale-to-fill" fill="#44413d"><path d="M13.68 6.67a.49.49 0 0 1 0 .17 2.78 2.78 0 0 1 .92 2.06v2a1.81 1.81 0 0 1-.87 1.49v2a.5.5 0 0 1-.5.5h-2a.5.5 0 0 1-.5-.5V12.7h-6v1.64a.5.5 0 0 1-.5.5h-2a.5.5 0 0 1-.5-.5v-2A1.78 1.78 0 0 1 1 10.9v-2a2.78 2.78 0 0 1 .93-2.06.49.49 0 0 1 0-.17l.81-3.23A1.89 1.89 0 0 1 4.58 2H11a1.89 1.89 0 0 1 1.87 1.44l.81 3.23ZM3.093 8.193A1 1 0 0 0 2.8 8.9v2h10v-2a1 1 0 0 0-1-1h-8a1 1 0 0 0-.707.293ZM11 3.8H4.58a.1.1 0 0 0-.1.07L3.93 6.1h7.72l-.55-2.23a.1.1 0 0 0-.1-.07Zm-.2 4.852a.9.9 0 1 1 1 1.497.9.9 0 0 1-1-1.497Zm-7 0a.9.9 0 1 1 1 1.497.9.9 0 0 1-1-1.497Z" clip-rule="evenodd" fill-rule="evenodd"></path></svg>