<svg aria-label="Property icon" viewBox="0 0 16 16" height="16" width="16" xmlns="http://www.w3.org/2000/svg" focusable="false" role="img" class="o-svg--scale-to-fill" fill="#44413d"><path d="M14.57,6,9.28,1.64a2.1,2.1,0,0,0-2.69,0L1.42,6a.9.9,0,0,0-.11,1.27.91.91,0,0,0,.7.31v6.5a.9.9,0,0,0,.9.9H13.09a.9.9,0,0,0,.9-.9V7.6h0a.87.87,0,0,0,.69-.33A.89.89,0,0,0,14.57,6ZM8.7,13.19H7.3V10a.7.7,0,0,1,1.4,0Zm1.4,0V10a2.1,2.1,0,1,0-4.2,0v3.2H3.81V6.35L7.75,3a.3.3,0,0,1,.38,0l4.06,3.34v6.82Z"></path></svg>