<svg width="21" height="21" viewBox="0 0 21 21" fill="none" xmlns="http://www.w3.org/2000/svg">
<path d="M11.3585 1.91528L10.4969 2.91411L9.63264 1.91438C7.42908 -0.634685 3.85631 -0.634685 1.65271 1.91438C-0.550903 4.46343 -0.550903 8.59626 1.65271 11.1454L9.94128 20.7332C10.2488 21.0889 10.7473 21.0889 11.0548 20.7332L19.3497 11.1435C21.5484 8.58607 21.5522 4.4648 19.3483 1.91528C17.1406 -0.638425 13.5662 -0.638425 11.3585 1.91528ZM18.2332 9.85909L10.498 18.8013L2.7662 9.85727C1.17754 8.01956 1.17754 5.04011 2.7662 3.20242C4.35484 1.36471 6.93055 1.36471 8.51922 3.20242L9.94422 4.85086C10.257 5.21259 10.7658 5.20553 11.0709 4.83526L12.472 3.20332C14.0647 1.36099 16.6421 1.36099 18.2347 3.20332C19.8238 5.04146 19.8211 8.01215 18.2332 9.85909Z" fill="#4678C1"/>
</svg>
