<svg xmlns="http://www.w3.org/2000/svg" viewBox="0 0 16 16" height="16" width="16" focusable="false" role="img" class="o-svg--scale-to-fill">
<path d="M14 3.07a3.91 3.91 0 0 0-2.78-1.15A4 4 0 0 0 8 3.61a4 4 0 0 0-3.18-1.69A3.91 3.91 0 0 0 2 3.07 4 4 0 0 0 1 6c0 5.08 5.94 8.11 7 8.11 1.06 0 7-3 7-8.11a4 4 0 0 0-1-2.93zm-6 9.18C7.08 11.89 2.8 9.61 2.8 6a2.24 2.24 0 0 1 .53-1.64 2.1 2.1 0 0 1 1.5-.61c1.13 0 1.92 1.07 2.38 2a.9.9 0 0 0 .8.49H8a.9.9 0 0 0 .8-.48c.47-.9 1.26-2 2.38-2a2.1 2.1 0 0 1 1.5.61c.382.453.57 1.04.52 1.63 0 3.61-4.28 5.89-5.2 6.25z"></path>
</svg>