<svg aria-label="Switch to card view" xmlns="http://www.w3.org/2000/svg" viewBox="0 0 24 24" height="24" width="24" focusable="false" role="img" class="o-svg--scale-to-fill">
<path d="M19 2H5a3 3 0 0 0-3 3v14a3 3 0 0 0 3 3h14a3 3 0 0 0 3-3V5a3 3 0 0 0-3-3zm1 17a1 1 0 0 1-1 1H5a1 1 0 0 1-1-1V5a1 1 0 0 1 1-1h14a1 1 0 0 1 1 1v14zM6 7v3c0 .556.448 1 1 1h3c.556 0 1-.448 1-1V7c0-.556-.448-1-1-1H7c-.556 0-1 .448-1 1zm7 0v3c0 .556.448 1 1 1h3c.556 0 1-.448 1-1V7c0-.556-.448-1-1-1h-3c-.556 0-1 .448-1 1zm-7 7v3c0 .556.448 1 1 1h3c.556 0 1-.448 1-1v-3c0-.556-.448-1-1-1H7c-.556 0-1 .448-1 1zm7 0v3c0 .556.448 1 1 1h3c.556 0 1-.448 1-1v-3c0-.556-.448-1-1-1h-3c-.556 0-1 .448-1 1z"></path>
</svg>