<svg aria-label="Follow Trade Me on Instagram" xmlns:xlink="http://www.w3.org/1999/xlink" xmlns="http://www.w3.org/2000/svg" viewBox="0 0 24 24" height="24" width="24" focusable="false" role="img" class="o-svg--scale-to-fill" fill="#44413d"><path d="M11.997 1.007c2.986 0 3.36.013 4.533.066 1.17.054 1.97.24 2.67.511a5.39 5.39 0 0 1 1.947 1.269A5.39 5.39 0 0 1 22.416 4.8c.272.7.457 1.5.51 2.67.054 1.173.067 1.547.067 4.533 0 2.987-.013 3.361-.066 4.534-.053 1.17-.24 1.97-.511 2.67a5.39 5.39 0 0 1-1.269 1.947 5.39 5.39 0 0 1-1.947 1.269c-.7.272-1.5.457-2.67.51-1.173.054-1.547.067-4.533.067-2.987 0-3.361-.013-4.534-.066-1.17-.054-1.97-.24-2.67-.511a5.39 5.39 0 0 1-1.947-1.269 5.39 5.39 0 0 1-1.269-1.947c-.272-.7-.457-1.5-.51-2.67C1.012 15.364 1 14.99 1 12.003c0-2.986.013-3.36.066-4.533.054-1.17.24-1.97.511-2.67a5.39 5.39 0 0 1 1.269-1.947 5.39 5.39 0 0 1 1.947-1.269c.7-.272 1.5-.458 2.67-.51 1.173-.054 1.547-.067 4.534-.067zm0 1.981c-2.937 0-3.284.012-4.444.064-1.072.05-1.654.228-2.042.379-.513.2-.88.438-1.264.823a3.407 3.407 0 0 0-.823 1.264c-.15.388-.33.97-.379 2.042-.052 1.16-.064 1.507-.064 4.443 0 2.937.012 3.284.064 4.444.05 1.072.229 1.654.38 2.042.199.513.437.88.822 1.264.384.385.75.623 1.264.823.388.15.97.33 2.042.379 1.16.052 1.507.064 4.444.064 2.936 0 3.284-.012 4.443-.064 1.072-.05 1.654-.229 2.042-.38.513-.199.88-.437 1.264-.822.385-.384.623-.75.823-1.264.15-.388.33-.97.379-2.042.052-1.16.064-1.507.064-4.444 0-2.936-.012-3.284-.064-4.443-.05-1.072-.228-1.654-.379-2.042-.2-.513-.438-.88-.823-1.264a3.407 3.407 0 0 0-1.264-.823c-.388-.15-.97-.33-2.042-.379-1.16-.052-1.507-.064-4.443-.064zm5.87 4.465a1.32 1.32 0 1 1 0-2.64 1.32 1.32 0 0 1 0 2.64zm-5.87 8.216a3.665 3.665 0 1 0 0-7.331 3.665 3.665 0 0 0 0 7.331zm0-9.312a5.647 5.647 0 1 1 0 11.293 5.647 5.647 0 0 1 0-11.293z"></path></svg>