<svg aria-label="Switch to list view" xmlns="http://www.w3.org/2000/svg" viewBox="0 0 24 24" height="24" width="24" focusable="false" role="img" class="o-svg--scale-to-fill">
<path d="M2 19a3 3 0 0 0 3 3h14a3 3 0 0 0 3-3V5a3 3 0 0 0-3-3H5a3 3 0 0 0-3 3v14zM4 5a1 1 0 0 1 1-1h14a1 1 0 0 1 1 1v14a1 1 0 0 1-1 1H5a1 1 0 0 1-1-1V5zm6.5 8H17a1 1 0 0 0 0-2h-6.5a1 1 0 0 0 0 2zm0-4H17a1 1 0 0 0 0-2h-6.5a1 1 0 1 0 0 2zm0 8H17a1 1 0 0 0 0-2h-6.5a1 1 0 0 0 0 2zM7 9a1 1 0 1 0 0-2 1 1 0 0 0 0 2zm0 4a1 1 0 1 0 0-2 1 1 0 0 0 0 2zm0 4a1 1 0 1 0 0-2 1 1 0 0 0 0 2z"></path>
</svg>