<svg aria-label="Log out icon" xmlns="http://www.w3.org/2000/svg" viewBox="0 0 16 16" height="16" width="16" focusable="false" role="img" class="o-svg--scale-to-fill">
<path d="M8.9 3.128V8a.9.9 0 0 1-1.8 0V3.128l-1.151.885A.9.9 0 1 1 4.85 2.587L8 .165l3.149 2.422a.9.9 0 1 1-1.098 1.426L8.9 3.128zM11.4 6.8a.9.9 0 1 1 0-1.8h.7A2.9 2.9 0 0 1 15 7.9v4.2a2.9 2.9 0 0 1-2.9 2.9H3.9A2.9 2.9 0 0 1 1 12.1V7.9A2.9 2.9 0 0 1 3.9 5h.8a.9.9 0 1 1 0 1.8h-.8a1.1 1.1 0 0 0-1.1 1.1v4.2a1.1 1.1 0 0 0 1.1 1.1h8.2a1.1 1.1 0 0 0 1.1-1.1V7.9a1.1 1.1 0 0 0-1.1-1.1h-.7z"></path>
</svg>