<svg xmlns="http://www.w3.org/2000/svg" viewBox="0 0 24 24" height="24" width="24" focusable="false" role="img" class="o-svg--scale-to-fill" fill="#943900">
<path d="M1.088 4v3.539A9.99 9.99 0 0 0 1.6 10.7l1.626 4.879A4.994 4.994 0 0 0 7.971 19H11a1 1 0 0 0 0-2H7.971a3 3 0 0 1-2.846-2.052L3.5 10.069A7.96 7.96 0 0 1 3.125 8h4.963v2a4.054 4.054 0 0 0 4 4 4 4 0 0 0 4-4V8h4.963a8.109 8.109 0 0 1-.384 2.106l-.179.614a1 1 0 1 0 1.92.559l.167-.577a10 10 0 0 0 .513-3.163V4a2 2 0 0 0-2-2h-5a2 2 0 0 0-2 2v6a2.029 2.029 0 0 1-2 2 2.08 2.08 0 0 1-2-2V4a2 2 0 0 0-2-2h-5a2 2 0 0 0-2 2zm20 0v2h-5V4h5zm-13 0v2h-5V4h5zm3 17a1 1 0 0 1-1 1h-4a1 1 0 0 1 0-2h4a1 1 0 0 1 1 1zM23 18.044a1 1 0 0 1 0 2h-3.044V23a1 1 0 0 1-2 0v-2.956H15a1 1 0 0 1 0-2h2.956V15a1 1 0 0 1 2 0v3.044H23z"></path>
</svg>