<svg width="20" height="20" viewBox="0 0 20 20" fill="none" xmlns="http://www.w3.org/2000/svg">
<path d="M18.9519 1.04803C17.5543 -0.349397 15.2885 -0.349337 13.8911 1.04818L1.94103 12.9988C1.5347 13.4052 1.2491 13.9162 1.116 14.4752L0.0204089 19.0764C-0.0399112 19.3297 0.0355189 19.5962 0.219679 19.7803C0.40385 19.9645 0.67037 20.0399 0.92373 19.9796L5.52499 18.8842C6.08419 18.751 6.59547 18.4653 7.00192 18.0588L18.952 6.10818C20.3493 4.71079 20.3493 2.44533 18.9519 1.04803ZM14.9518 2.10869C15.7634 1.297 17.0795 1.29696 17.8912 2.10861C18.7028 2.92019 18.7029 4.23602 17.8913 5.04765L17 5.93904L14.0606 2.99991L14.9518 2.10869ZM13 4.06055L15.9394 6.99969L5.9412 16.9983C5.73105 17.2085 5.46669 17.3562 5.17756 17.4251L1.76191 18.2382L2.57521 14.8227C2.64402 14.5336 2.79168 14.2694 3.00175 14.0593L13 4.06055Z" fill="#212121"/>
</svg>
