<svg aria-label="Save this search" xmlns="http://www.w3.org/2000/svg" viewBox="0 0 24 24" height="24" width="24" focusable="false" role="img" class="o-svg--scale-to-fill">
<path d="M23 17a1 1 0 0 1-1 1h-3v3a1 1 0 0 1-2 0v-3h-3a1 1 0 0 1 0-2h3v-3a1 1 0 0 1 2 0v3h3a1 1 0 0 1 1 1zm-11 4.938c-1.473 0-10.982-4.845-10.982-12.792a6.058 6.058 0 0 1 1.568-4.413A5.924 5.924 0 0 1 6.8 2.993a6.356 6.356 0 0 1 5.207 3.08 6.358 6.358 0 0 1 5.193-3.08 5.926 5.926 0 0 1 4.207 1.741 6.06 6.06 0 0 1 1.568 4.412c0 1.074-.168 2.141-.5 3.163a1 1 0 1 1-1.9-.617 8.242 8.242 0 0 0 .406-2.546 4.1 4.1 0 0 0-1-3.012 3.913 3.913 0 0 0-2.786-1.141c-2.062 0-3.481 1.887-4.309 3.47A1 1 0 0 1 12 9a1 1 0 0 1-.883-.539C10.3 6.879 8.879 4.993 6.8 4.993a3.916 3.916 0 0 0-2.782 1.14 4.1 4.1 0 0 0-1 3.012c0 6.558 7.748 10.371 8.98 10.771.112-.037.307-.109.592-.237a1 1 0 0 1 .819 1.824 3.387 3.387 0 0 1-1.409.435z"></path>
</svg>