<svg _ngcontent-frend-c887405558="" xmlns="http://www.w3.org/2000/svg" viewBox="0 0 24 24" aria-labelledby="tg-bab54430-3c22-4c2c-b6d0-e3db7a47685b" preserveAspectRatio="xMinYMid meet" focusable="false" role="img" height="24" width="24" fill="#00569e"><defs _ngcontent-frend-c887405558=""><style _ngcontent-frend-c887405558=""> .cls-1 { fill: #055e99; } .cls-2 { fill: #fff; } </style></defs><path _ngcontent-frend-c887405558="" id="badge-5" d="M10.82.55a1.55,1.55,0,0,1,2.36,0c1,1.24,1.37,1.3,2.84.63a1.53,1.53,0,0,1,2.12,1c.38,1.53.64,1.76,2.28,1.78a1.49,1.49,0,0,1,1.47,1.8c-.35,1.55-.2,1.86,1.26,2.57a1.47,1.47,0,0,1,.53,2.25c-1,1.25-1,1.59,0,2.84a1.47,1.47,0,0,1-.53,2.25c-1.45.7-1.61,1-1.26,2.57A1.49,1.49,0,0,1,20.42,20c-1.3,0-1.82-.07-2.28,1.78a1.53,1.53,0,0,1-2.12,1c-1.18-.54-1.61-.84-2.84.63a1.55,1.55,0,0,1-2.36,0c-1-1.24-1.38-1.3-2.84-.63a1.52,1.52,0,0,1-2.12-1C5.48,20.3,5.23,20.06,3.58,20a1.5,1.5,0,0,1-1.47-1.8c.34-1.54.2-1.86-1.26-2.57a1.47,1.47,0,0,1-.53-2.25c1-1.24,1-1.59,0-2.84A1.47,1.47,0,0,1,.85,8.33c1.44-.7,1.61-1,1.26-2.57A1.5,1.5,0,0,1,3.58,4c1.65,0,1.9-.26,2.28-1.78A1.52,1.52,0,0,1,8,1.18C9.43,1.85,9.78,1.79,10.82.55Z" class="cls-1"></path><path _ngcontent-frend-c887405558="" d="M10.42,6.19,6.1,5.65v8A4.23,4.23,0,0,0,8.48,17.5L12,18.91l3.57-1.43a4.22,4.22,0,0,0,2.33-3.87v-8L12,6.39l-1.58-.2M7.56,14.61l4.11-3.56v1.76L8.25,15.76A2.81,2.81,0,0,1,7.56,14.61Zm-.15-5L9.93,7.45l1.63.21L7.41,11.25Zm0,4v-1.5l4.26-3.68v1.75L7.42,13.86A2,2,0,0,1,7.41,13.61ZM9,7.34,7.41,8.7V7.14Zm2.63,10L10.83,17l.84-.73Zm4.92-3.76A2.87,2.87,0,0,1,15,16.28l-2.71,1.09V14.93h-.66v.5l-1.53,1.33L9,16.31l-.23-.13,2.89-2.51v.6h.66V7.67l4.26-.53Z" class="cls-2"></path><title _ngcontent-frend-c887405558="" id="tg-bab54430-3c22-4c2c-b6d0-e3db7a47685b">Buyer protection logo</title></svg>