<svg aria-label="Shipping" xmlns="http://www.w3.org/2000/svg" viewBox="0 0 16 16" height="16" width="16" focusable="false" role="img" class="o-svg--scale-to-fill" fill="#65605d">
<path d="M13.39 5h-.93a2.53 2.53 0 0 0-.56-2.05A2.7 2.7 0 0 0 9.82 2a.9.9 0 0 0 0 1.8c.27-.01.53.1.71.3a.75.75 0 0 1 .16.64l-.18 1-.51 3.1a.9.9 0 0 0 .73 1h.12a.9.9 0 0 0 .89-.74l.41-2.3h1.1L12.9 9h1l-.39 2.2H3.17l.36-2a.903.903 0 1 0-1.77-.36L1 13h2a1.63 1.63 0 0 0 1.65 2A2.49 2.49 0 0 0 7 13h2a1.63 1.63 0 0 0 1.65 2A2.49 2.49 0 0 0 13 13h2l.87-4.94a2.64 2.64 0 0 0-.54-2.16 2.58 2.58 0 0 0-1.94-.9zM2 4h4.5a1 1 0 1 0 0-2H2a1 1 0 1 0 0 2z"></path>
<path d="M2 7h2a1 1 0 1 0 0-2H2a1 1 0 1 0 0 2z"></path>
</svg>