<svg xmlns="http://www.w3.org/2000/svg" viewBox="0 0 16 16" height="16" width="16" focusable="false" role="img" class="o-svg--scale-to-fill">
<path d="M7 13.9a1 1 0 0 0-1-1H5a1 1 0 0 0 0 2h1a1 1 0 0 0 1-1zm4 1a1 1 0 0 0 0-2h-1a1 1 0 0 0 0 2h1zm-8.44-4.74A2.88 2.88 0 0 0 5.26 12h5.47a2.88 2.88 0 0 0 2.7-1.84l1.09-2.77A6.87 6.87 0 0 0 15 4.87V2.4A1.4 1.4 0 0 0 13.6 1h-3.2A1.4 1.4 0 0 0 9 2.4V5a1 1 0 0 1-1 1.21A1 1 0 0 1 7 5V2.4A1.4 1.4 0 0 0 5.6 1H2.4A1.4 1.4 0 0 0 1 2.4v2.47c0 .863.163 1.718.48 2.52l1.08 2.77zM13.2 2.8v1.4h-2.4V2.8h2.4zM8 8a2.75 2.75 0 0 0 2.66-2h2.41a5.05 5.05 0 0 1-.21.73l-1.1 2.77a1.11 1.11 0 0 1-1 .7H9a1 1 0 1 0-2 0H5.26a1.11 1.11 0 0 1-1-.7L3.15 6.73A5 5 0 0 1 2.94 6h2.41A2.73 2.73 0 0 0 8 8zM5.2 2.8v1.4H2.8V2.8h2.4z"></path>
</svg>